<mxfile host="app.diagrams.net" modified="2023-10-19T08:59:53.835Z" agent="Mozilla/5.0 (Macintosh; Intel Mac OS X 10_15_7) AppleWebKit/537.36 (KHTML, like Gecko) Chrome/118.0.0.0 Safari/537.36" etag="S7MJKLHP_wPt1UA_7a48" version="21.3.6" type="github">
  <diagram name="ページ1" id="bj9Jaxc7u5YTRXyQlvln">
    <mxGraphModel dx="1482" dy="913" grid="1" gridSize="10" guides="1" tooltips="1" connect="1" arrows="1" fold="1" page="1" pageScale="1" pageWidth="827" pageHeight="1169" math="0" shadow="0">
      <root>
        <mxCell id="0" />
        <mxCell id="1" parent="0" />
        <mxCell id="EaMLfgED7owGWLngrtqM-77" style="edgeStyle=orthogonalEdgeStyle;rounded=0;orthogonalLoop=1;jettySize=auto;html=1;exitX=1;exitY=0.75;exitDx=0;exitDy=0;" edge="1" parent="1" source="EaMLfgED7owGWLngrtqM-44">
          <mxGeometry relative="1" as="geometry">
            <mxPoint x="710" y="616.5" as="targetPoint" />
          </mxGeometry>
        </mxCell>
        <mxCell id="EaMLfgED7owGWLngrtqM-78" value="デプロイ" style="edgeLabel;html=1;align=center;verticalAlign=middle;resizable=0;points=[];" vertex="1" connectable="0" parent="EaMLfgED7owGWLngrtqM-77">
          <mxGeometry x="-0.0445" y="1" relative="1" as="geometry">
            <mxPoint as="offset" />
          </mxGeometry>
        </mxCell>
        <mxCell id="EaMLfgED7owGWLngrtqM-44" value="" style="whiteSpace=wrap;html=1;verticalAlign=top;dashed=0;" vertex="1" parent="1">
          <mxGeometry x="340" y="545" width="220" height="95" as="geometry" />
        </mxCell>
        <mxCell id="EaMLfgED7owGWLngrtqM-67" style="edgeStyle=orthogonalEdgeStyle;rounded=0;orthogonalLoop=1;jettySize=auto;html=1;exitX=0.337;exitY=0.002;exitDx=0;exitDy=0;entryX=0;entryY=1;entryDx=0;entryDy=0;exitPerimeter=0;" edge="1" parent="1" source="EaMLfgED7owGWLngrtqM-44" target="EaMLfgED7owGWLngrtqM-41">
          <mxGeometry relative="1" as="geometry">
            <Array as="points">
              <mxPoint x="390" y="545" />
            </Array>
          </mxGeometry>
        </mxCell>
        <mxCell id="EaMLfgED7owGWLngrtqM-70" value="&lt;font style=&quot;font-size: 7px;&quot;&gt;コンテンツ取得&lt;/font&gt;" style="edgeLabel;html=1;align=center;verticalAlign=middle;resizable=0;points=[];" vertex="1" connectable="0" parent="EaMLfgED7owGWLngrtqM-67">
          <mxGeometry x="0.2655" relative="1" as="geometry">
            <mxPoint as="offset" />
          </mxGeometry>
        </mxCell>
        <mxCell id="EaMLfgED7owGWLngrtqM-6" value="" style="dashed=0;outlineConnect=0;html=1;align=center;labelPosition=center;verticalLabelPosition=bottom;verticalAlign=top;shape=mxgraph.weblogos.github;aspect=fixed;flipH=0;flipV=0;" vertex="1" parent="1">
          <mxGeometry x="340" y="512" width="30" height="30" as="geometry" />
        </mxCell>
        <mxCell id="EaMLfgED7owGWLngrtqM-8" value="Astro" style="shape=image;editableCssRules=.*;image=data:image/svg+xml,PHN2ZyB2aWV3Qm94PSIwIDAgMjQgMjQiIHhtbG5zPSJodHRwOi8vd3d3LnczLm9yZy8yMDAwL3N2ZyI+PHN0eWxlPip7ZmlsbDojQkM1MkVFfTwvc3R5bGU+PHBhdGggZD0iTTguMzU4IDIwLjE2MmMtMS4xODYtMS4wNy0xLjUzMi0zLjMxNi0xLjAzOC00Ljk0NC44NTYgMS4wMjYgMi4wNDMgMS4zNTIgMy4yNzIgMS41MzUgMS44OTcuMjgzIDMuNzYuMTc3IDUuNTIyLS42NzguMjAyLS4wOTguMzg4LS4yMjkuNjA4LS4zNi4xNjYuNDczLjIwOS45NS4xNTEgMS40MzctLjE0IDEuMTg1LS43MzggMi4xLTEuNjg4IDIuNzk0LS4zOC4yNzctLjc4Mi41MjUtMS4xNzUuNzg3LTEuMjA1LjgwNC0xLjUzMSAxLjc0Ny0xLjA3OCAzLjExOWwuMDQ0LjE0OGEzLjE1OCAzLjE1OCAwIDAgMS0xLjQwNy0xLjE4OCAzLjMxIDMuMzEgMCAwIDEtLjU0NC0xLjgxNWMtLjAwNC0uMzItLjAwNC0uNjQyLS4wNDgtLjk1OC0uMTA2LS43NjktLjQ3Mi0xLjExMy0xLjE2MS0xLjEzMy0uNzA3LS4wMi0xLjI2Ny40MTEtMS40MTUgMS4wOS0uMDEyLjA1My0uMDI4LjEwNC0uMDQ1LjE2NWguMDAyem0tNS45NjEtNC40NDVzMy4yNC0xLjU3NSA2LjQ5LTEuNTc1bDIuNDUxLTcuNTY1Yy4wOTItLjM2Ni4zNi0uNjE0LjY2Mi0uNjE0LjMwMiAwIC41Ny4yNDguNjYyLjYxNGwyLjQ1IDcuNTY1YzMuODUgMCA2LjQ5MSAxLjU3NSA2LjQ5MSAxLjU3NUwxNi4wODguNzI3QzE1LjkzLjI4NSAxNS42NjMgMCAxNS4zMDMgMEg4LjY5N2MtLjM2IDAtLjYxNS4yODUtLjc4NC43MjdsLTUuNTE2IDE0Ljk5eiIvPjwvc3ZnPg==;fontSize=14;fontStyle=1;labelPosition=center;verticalLabelPosition=bottom;align=center;verticalAlign=top;aspect=fixed;" vertex="1" parent="1">
          <mxGeometry x="419" y="560" width="50" height="50" as="geometry" />
        </mxCell>
        <mxCell id="EaMLfgED7owGWLngrtqM-75" style="edgeStyle=orthogonalEdgeStyle;rounded=0;orthogonalLoop=1;jettySize=auto;html=1;exitX=0;exitY=0.25;exitDx=0;exitDy=0;" edge="1" parent="1" source="EaMLfgED7owGWLngrtqM-10">
          <mxGeometry relative="1" as="geometry">
            <mxPoint x="570" y="572.5" as="targetPoint" />
          </mxGeometry>
        </mxCell>
        <mxCell id="EaMLfgED7owGWLngrtqM-76" value="Webhookでビルド" style="edgeLabel;html=1;align=center;verticalAlign=middle;resizable=0;points=[];" vertex="1" connectable="0" parent="EaMLfgED7owGWLngrtqM-75">
          <mxGeometry x="0.1944" y="-2" relative="1" as="geometry">
            <mxPoint as="offset" />
          </mxGeometry>
        </mxCell>
        <mxCell id="EaMLfgED7owGWLngrtqM-79" style="edgeStyle=orthogonalEdgeStyle;rounded=0;orthogonalLoop=1;jettySize=auto;html=1;" edge="1" parent="1">
          <mxGeometry relative="1" as="geometry">
            <mxPoint x="730" y="720" as="targetPoint" />
            <mxPoint x="730" y="640" as="sourcePoint" />
            <Array as="points">
              <mxPoint x="730" y="720" />
            </Array>
          </mxGeometry>
        </mxCell>
        <mxCell id="EaMLfgED7owGWLngrtqM-80" value="&lt;font style=&quot;font-size: 8px;&quot;&gt;HTML,CSS,JS配信&lt;/font&gt;" style="edgeLabel;html=1;align=center;verticalAlign=middle;resizable=0;points=[];" vertex="1" connectable="0" parent="EaMLfgED7owGWLngrtqM-79">
          <mxGeometry x="0.0728" relative="1" as="geometry">
            <mxPoint as="offset" />
          </mxGeometry>
        </mxCell>
        <mxCell id="EaMLfgED7owGWLngrtqM-10" value="&lt;b&gt;&lt;font style=&quot;font-size: 14px;&quot;&gt;Verce&lt;/font&gt;&lt;/b&gt;l" style="shape=image;html=1;verticalAlign=top;verticalLabelPosition=bottom;labelBackgroundColor=#ffffff;imageAspect=0;aspect=fixed;image=https://cdn1.iconfinder.com/data/icons/ionicons-fill-vol-2/512/logo-vercel-128.png;fontSize=12;" vertex="1" parent="1">
          <mxGeometry x="720" y="560" width="50" height="50" as="geometry" />
        </mxCell>
        <mxCell id="EaMLfgED7owGWLngrtqM-17" style="edgeStyle=orthogonalEdgeStyle;rounded=0;orthogonalLoop=1;jettySize=auto;html=1;exitX=0.5;exitY=1;exitDx=0;exitDy=0;" edge="1" parent="1" source="EaMLfgED7owGWLngrtqM-10" target="EaMLfgED7owGWLngrtqM-10">
          <mxGeometry relative="1" as="geometry" />
        </mxCell>
        <mxCell id="EaMLfgED7owGWLngrtqM-25" value="&lt;b&gt;&lt;font style=&quot;font-size: 14px;&quot;&gt;developer&lt;/font&gt;&lt;/b&gt;" style="sketch=0;outlineConnect=0;fontColor=#232F3E;gradientColor=none;fillColor=#232F3D;strokeColor=none;dashed=0;verticalLabelPosition=bottom;verticalAlign=top;align=center;html=1;fontSize=12;fontStyle=0;aspect=fixed;pointerEvents=1;shape=mxgraph.aws4.user;" vertex="1" parent="1">
          <mxGeometry x="60" y="542" width="78" height="78" as="geometry" />
        </mxCell>
        <mxCell id="EaMLfgED7owGWLngrtqM-81" style="edgeStyle=orthogonalEdgeStyle;rounded=0;orthogonalLoop=1;jettySize=auto;html=1;" edge="1" parent="1">
          <mxGeometry relative="1" as="geometry">
            <mxPoint x="770" y="640" as="targetPoint" />
            <mxPoint x="770" y="720" as="sourcePoint" />
          </mxGeometry>
        </mxCell>
        <mxCell id="EaMLfgED7owGWLngrtqM-82" value="&lt;font style=&quot;font-size: 8px;&quot;&gt;サイトアクセス&lt;/font&gt;" style="edgeLabel;html=1;align=center;verticalAlign=middle;resizable=0;points=[];" vertex="1" connectable="0" parent="EaMLfgED7owGWLngrtqM-81">
          <mxGeometry x="0.3393" y="1" relative="1" as="geometry">
            <mxPoint as="offset" />
          </mxGeometry>
        </mxCell>
        <mxCell id="EaMLfgED7owGWLngrtqM-26" value="&lt;b&gt;&lt;font style=&quot;font-size: 14px;&quot;&gt;User&lt;/font&gt;&lt;/b&gt;" style="sketch=0;outlineConnect=0;fontColor=#232F3E;gradientColor=none;fillColor=#232F3D;strokeColor=none;dashed=0;verticalLabelPosition=bottom;verticalAlign=top;align=center;html=1;fontSize=12;fontStyle=0;aspect=fixed;pointerEvents=1;shape=mxgraph.aws4.users;" vertex="1" parent="1">
          <mxGeometry x="720" y="730" width="58" height="58" as="geometry" />
        </mxCell>
        <mxCell id="EaMLfgED7owGWLngrtqM-69" style="edgeStyle=orthogonalEdgeStyle;rounded=0;orthogonalLoop=1;jettySize=auto;html=1;exitX=1;exitY=1;exitDx=0;exitDy=0;" edge="1" parent="1" source="EaMLfgED7owGWLngrtqM-41">
          <mxGeometry relative="1" as="geometry">
            <mxPoint x="450" y="540" as="targetPoint" />
            <Array as="points" />
          </mxGeometry>
        </mxCell>
        <mxCell id="EaMLfgED7owGWLngrtqM-71" value="&lt;font style=&quot;font-size: 7px;&quot;&gt;コンテンツ提供&lt;/font&gt;" style="edgeLabel;html=1;align=center;verticalAlign=middle;resizable=0;points=[];" vertex="1" connectable="0" parent="EaMLfgED7owGWLngrtqM-69">
          <mxGeometry x="-0.2116" relative="1" as="geometry">
            <mxPoint as="offset" />
          </mxGeometry>
        </mxCell>
        <mxCell id="EaMLfgED7owGWLngrtqM-73" style="edgeStyle=orthogonalEdgeStyle;rounded=0;orthogonalLoop=1;jettySize=auto;html=1;entryX=0.524;entryY=-0.082;entryDx=0;entryDy=0;entryPerimeter=0;" edge="1" parent="1" target="EaMLfgED7owGWLngrtqM-10">
          <mxGeometry relative="1" as="geometry">
            <mxPoint x="500" y="435" as="sourcePoint" />
          </mxGeometry>
        </mxCell>
        <mxCell id="EaMLfgED7owGWLngrtqM-74" value="Webhook通知" style="edgeLabel;html=1;align=center;verticalAlign=middle;resizable=0;points=[];" vertex="1" connectable="0" parent="EaMLfgED7owGWLngrtqM-73">
          <mxGeometry x="-0.577" y="1" relative="1" as="geometry">
            <mxPoint as="offset" />
          </mxGeometry>
        </mxCell>
        <mxCell id="EaMLfgED7owGWLngrtqM-41" value="&lt;b&gt;&lt;font style=&quot;font-size: 20px;&quot;&gt;microCMS&lt;/font&gt;&lt;/b&gt;" style="text;strokeColor=none;align=center;fillColor=none;html=1;verticalAlign=middle;whiteSpace=wrap;rounded=0;" vertex="1" parent="1">
          <mxGeometry x="390" y="420" width="60" height="30" as="geometry" />
        </mxCell>
        <mxCell id="EaMLfgED7owGWLngrtqM-48" style="edgeStyle=orthogonalEdgeStyle;rounded=0;orthogonalLoop=1;jettySize=auto;html=1;exitX=0.5;exitY=1;exitDx=0;exitDy=0;entryX=0.5;entryY=0.8;entryDx=0;entryDy=0;entryPerimeter=0;" edge="1" parent="1" source="EaMLfgED7owGWLngrtqM-8" target="EaMLfgED7owGWLngrtqM-8">
          <mxGeometry relative="1" as="geometry" />
        </mxCell>
        <mxCell id="EaMLfgED7owGWLngrtqM-51" value="" style="edgeStyle=orthogonalEdgeStyle;rounded=0;orthogonalLoop=1;jettySize=auto;html=1;" edge="1" parent="1">
          <mxGeometry relative="1" as="geometry">
            <mxPoint x="159" y="435" as="sourcePoint" />
            <mxPoint x="325" y="435" as="targetPoint" />
            <Array as="points">
              <mxPoint x="325" y="435" />
              <mxPoint x="325" y="435" />
            </Array>
          </mxGeometry>
        </mxCell>
        <mxCell id="EaMLfgED7owGWLngrtqM-54" value="コンテンツ更新" style="edgeLabel;html=1;align=center;verticalAlign=bottom;resizable=0;points=[];labelPosition=center;verticalLabelPosition=top;" vertex="1" connectable="0" parent="EaMLfgED7owGWLngrtqM-51">
          <mxGeometry relative="1" as="geometry">
            <mxPoint as="offset" />
          </mxGeometry>
        </mxCell>
        <mxCell id="EaMLfgED7owGWLngrtqM-52" value="" style="edgeStyle=orthogonalEdgeStyle;rounded=0;orthogonalLoop=1;jettySize=auto;html=1;" edge="1" parent="1">
          <mxGeometry relative="1" as="geometry">
            <mxPoint x="160" y="590" as="sourcePoint" />
            <mxPoint x="326" y="590" as="targetPoint" />
            <Array as="points">
              <mxPoint x="326" y="590" />
              <mxPoint x="326" y="590" />
            </Array>
          </mxGeometry>
        </mxCell>
        <mxCell id="EaMLfgED7owGWLngrtqM-53" value="" style="fontColor=#0066CC;verticalAlign=top;verticalLabelPosition=bottom;labelPosition=center;align=center;html=1;outlineConnect=0;fillColor=#CCCCCC;strokeColor=#6881B3;gradientColor=none;gradientDirection=north;strokeWidth=2;shape=mxgraph.networks.pc;" vertex="1" parent="1">
          <mxGeometry x="49" y="400" width="100" height="70" as="geometry" />
        </mxCell>
      </root>
    </mxGraphModel>
  </diagram>
</mxfile>
